<svg xmlns="http://www.w3.org/2000/svg" width="121" height="121" viewBox="0 0 121 121">
  <g id="Ellipse_7" data-name="Ellipse 7" fill="#fff" stroke="#e2e2e2" stroke-width="1">
    <circle cx="60.5" cy="60.5" r="60.5" stroke="none"/>
    <circle cx="60.5" cy="60.5" r="60" fill="none"/>
  </g>
  <path id="Icon_material-add-a-photo" data-name="Icon material-add-a-photo" d="M4.5,6V1.5h3V6H12V9H7.5v4.5h-3V9H0V6ZM9,15V10.5h4.5V6H24l2.745,3H31.5a3.009,3.009,0,0,1,3,3V30a3.009,3.009,0,0,1-3,3H7.5a3.009,3.009,0,0,1-3-3V15ZM19.5,28.5A7.5,7.5,0,1,0,12,21,7.5,7.5,0,0,0,19.5,28.5ZM14.7,21a4.8,4.8,0,1,0,4.8-4.8A4.795,4.795,0,0,0,14.7,21Z" transform="translate(43 40.5)" fill="#e2e2e2"/>
</svg>
