<svg xmlns="http://www.w3.org/2000/svg" width="27.358" height="16.873" viewBox="0 0 27.358 16.873">
    <path id="Icon_awesome-retweet" data-name="Icon awesome-retweet" d="M27.288,16.487l-4.349,4.349a1.037,1.037,0,0,1-1.466,0l-4.349-4.349a1.037,1.037,0,0,1,0-1.466l.467-.467a1.037,1.037,0,0,1,1.487.021l1.746,1.848V8.557h-8.1a1.037,1.037,0,0,1-.733-.3L11.3,7.562a1.037,1.037,0,0,1,.733-1.77h10.52a1.037,1.037,0,0,1,1.037,1.037v9.594l1.746-1.848a1.037,1.037,0,0,1,1.487-.021l.467.467a1.037,1.037,0,0,1,0,1.466Zm-11.453.667a1.037,1.037,0,0,0-.733-.3H7V8.984l1.746,1.848a1.037,1.037,0,0,0,1.487.021l.467-.467a1.037,1.037,0,0,0,0-1.466L6.352,4.571a1.037,1.037,0,0,0-1.466,0L.537,8.92a1.037,1.037,0,0,0,0,1.466L1,10.853a1.037,1.037,0,0,0,1.487-.021L4.237,8.984v9.594a1.037,1.037,0,0,0,1.037,1.037h10.52a1.037,1.037,0,0,0,.733-1.77l-.691-.691Z" transform="translate(-0.233 -4.267)" fill="#e2e2e2"/>
  </svg>
