<svg xmlns="http://www.w3.org/2000/svg" width="22" height="22" viewBox="0 0 22 22">
    <path id="Icon_awesome-exclamation-circle" data-name="Icon awesome-exclamation-circle" d="M22.563,11.563a11,11,0,1,1-11-11A11,11,0,0,1,22.563,11.563Zm-11,2.218a2.04,2.04,0,1,0,2.04,2.04A2.04,2.04,0,0,0,11.563,13.78ZM9.625,6.446l.329,6.032a.532.532,0,0,0,.531.5h2.153a.532.532,0,0,0,.531-.5L13.5,6.446a.532.532,0,0,0-.531-.561H10.157A.532.532,0,0,0,9.625,6.446Z" transform="translate(-0.563 -0.563)" fill="#e2e2e2"/>
  </svg>
