<svg xmlns="http://www.w3.org/2000/svg" width="121.298" height="121.298" viewBox="0 0 121.298 121.298">
    <path id="Icon_awesome-user-circle" data-name="Icon awesome-user-circle" d="M60.649.563A60.649,60.649,0,1,0,121.3,61.212,60.639,60.639,0,0,0,60.649.563Zm0,23.477A21.521,21.521,0,1,1,39.128,45.56,21.521,21.521,0,0,1,60.649,24.04Zm0,84.126A46.863,46.863,0,0,1,24.822,91.487,27.266,27.266,0,0,1,48.911,76.863a5.984,5.984,0,0,1,1.736.269,32.379,32.379,0,0,0,10,1.687,32.256,32.256,0,0,0,10-1.687,5.984,5.984,0,0,1,1.736-.269A27.266,27.266,0,0,1,96.476,91.487,46.863,46.863,0,0,1,60.649,108.166Z" transform="translate(0 -0.563)" fill="#e2e2e2"/>
  </svg>
